<?xml version="1.0" encoding="utf-8"?>
<!-- Generator: Adobe Illustrator 18.1.1, SVG Export Plug-In . SVG Version: 6.00 Build 0)  -->
<svg version="1.1" id="Layer_1" xmlns="http://www.w3.org/2000/svg" xmlns:xlink="http://www.w3.org/1999/xlink" x="0px" y="0px"
	 viewBox="0 0 72 72" enable-background="new 0 0 72 72" xml:space="preserve">
<linearGradient id="_x2E_svg_1_" gradientUnits="userSpaceOnUse" x1="36" y1="69.583" x2="36" y2="2.417">
	<stop  offset="0" style="stop-color:#FDE267"/>
	<stop  offset="0.5488" style="stop-color:#FFD743"/>
	<stop  offset="0.5651" style="stop-color:#F9C01C"/>
	<stop  offset="1" style="stop-color:#C97829"/>
</linearGradient>
<circle id="_x2E_svg_6314_" fill="url(#_x2E_svg_1_)" cx="36" cy="36" r="33.6"/>
<circle id="_x2E_svg_6313_" fill="#FEEA98" cx="36" cy="36" r="30.3"/>
<linearGradient id="_x2E_svg_2_" gradientUnits="userSpaceOnUse" x1="16.6911" y1="53.0105" x2="27.969" y2="53.9972">
	<stop  offset="7.973932e-02" style="stop-color:#DD9D31"/>
	<stop  offset="0.279" style="stop-color:#FDE267"/>
	<stop  offset="0.4411" style="stop-color:#FFD744"/>
	<stop  offset="0.7016" style="stop-color:#C97829"/>
</linearGradient>
<path id="_x2E_svg_6364_" fill="url(#_x2E_svg_2_)" d="M28.9,43.9c0,0-2,0.6-2.5,0.8s-3,1-3.9,2.4c-0.8,1.4-0.7,2.8-1.2,3.4
	s-1.8,3.3-1.8,4.3c0.1,1-3.2,6.2-3.5,6.5c-0.3,0.4,2.7,2.4,3.1,2.1s2.6-8.7,3.2-9.5C22.9,53,27.6,46.2,28.9,43.9z"/>
<linearGradient id="_x2E_svg_3_" gradientUnits="userSpaceOnUse" x1="17.6109" y1="53.1307" x2="30.6494" y2="53.1307">
	<stop  offset="0" style="stop-color:#DD9D31"/>
	<stop  offset="0.2955" style="stop-color:#FDE267"/>
	<stop  offset="0.565" style="stop-color:#FFD744"/>
	<stop  offset="0.9015" style="stop-color:#C97829"/>
</linearGradient>
<path id="_x2E_svg_6363_" fill="url(#_x2E_svg_3_)" d="M30.6,43.1c0,0-0.6-1.2-0.9-1c-0.4,0.2-1.1,1.6-1.8,2.2
	c-0.7,0.5-2.8,3.6-4.1,5c-1.3,1.4-1.9,2.7-2.7,3.8c-0.8,1-3.6,3.3-3.5,5.1c0.1,1.8,0.9,4,0.8,4.8c0,0.8,1.7,1.3,1.7,1.3
	s2.1-2.7,2.1-3c0-0.3,1.7-5,2.2-6.1c0.5-1.1,5.8-11.9,5.8-11.9S30.2,43.3,30.6,43.1z"/>
<linearGradient id="_x2E_svg_4_" gradientUnits="userSpaceOnUse" x1="20.4711" y1="24.7927" x2="48.1048" y2="32.1971">
	<stop  offset="0" style="stop-color:#F8C01E"/>
	<stop  offset="0.3362" style="stop-color:#FDE267"/>
	<stop  offset="0.6143" style="stop-color:#FFD744"/>
	<stop  offset="1" style="stop-color:#C97829"/>
</linearGradient>
<path id="_x2E_svg_6362_" fill="url(#_x2E_svg_4_)" d="M29.8,13.4c0,0-2.5,0.6-4.1,2.4s-1.3,2.2-1.9,2.8c-0.6,0.6-1.1,1.4-0.5,2.6
	s0.4,1.8,0.4,2.1c0,0.3-3,3-3.8,4.1c-0.8,1.2,0.6,2,1.1,1.8c0,0,0.1,0.1,0.1,0.2c0,0.2-1.8,1.2-0.2,3.4c0,0,0.2-0.1,0.2-0.2
	c0-0.1,0.2,0.4,0.1,0.6c-0.1,0.2,0.1,0.4,0.1,0.4S21,33.8,21.1,34c0.1,0.3-0.8,0.8-0.9,2c0,0,0.2,0.1,0.3,0s-0.3,1.4-0.1,2.2
	c0,0,0.3,0.1,0.5,0c0.2-0.1,0.2,0.5,0.5,0.7c0.3,0.2,1.1,0.7,2,0.6c0.9-0.1,1.5,0,1.5,0s-0.1,0.3-0.1,0.4s0.6-0.2,0.9-0.1
	C26,40,26,40.2,26,40.4c-0.1,0.2,1.1-0.2,1.5,0.1s0.7,0.8,0.8,1c0.1,0.3,0.2-0.5,0.6-0.4c0.4,0.1,2.3,3.6,2.4,4.1
	c0.1,0.6,0,1.8,0,1.8s12.6-8.5,13.8-10.2l0.2-0.4c0,0,0.6-0.5,0.4-1.5c0,0,0.7-0.8,0.7-1.1c0.1-0.3,0.3-1.2,0.2-1.6
	c0,0,3-4.3,3.4-6.9c0.4-2.6,0.3-7.1-5.8-12.3c0,0-0.2-0.3,0-0.4c0,0-0.4-0.6-1.2,0c0,0-0.9-0.4-1.2-1.1c-0.3-0.7-3.7-1.2-4.4-1
	c-0.8,0.2-0.9,0.4-1.1,0.4c-0.2,0,0.6-0.5,1-0.6c0,0-2.6-0.3-3.5,0c0,0-0.2-0.1-0.1-0.2c0.2-0.1-1.5-0.2-2,0.2
	c-0.5,0.3-1.2,0.2-1.1,0.1s0.3-0.3,0.6-0.3c0,0-2-0.5-2.7,1C27.6,12.4,28.9,13.5,29.8,13.4z"/>
<path id="_x2E_svg_6361_" fill="#995123" d="M20.9,38.3c0.2-0.1,0.2,0.5,0.5,0.7c0.3,0.2,1.1,0.7,2,0.6c0.9-0.1,1.5,0,1.5,0
	s-0.1,0.3-0.1,0.4s0.6-0.2,0.9-0.1C26,40,26,40.2,26,40.4c-0.1,0.2,1.1-0.2,1.5,0.1s0.7,0.8,0.8,1c0.1,0.3,0.2-0.5,0.6-0.4
	c0,0,0.6-0.4,1-0.2c0.4,0.2,1.3,0.7,1.3,0.7s-0.6-0.5,0.4-1.7c1-1.2,2-1.2,2-1.2s-0.8-1.3,1.4-2.3s1.8-2,1.8-2s-0.4,0.5-0.7,0.7
	c-0.3,0.1-0.8-0.6-0.2-1.6c0.6-1.1,1.5-1,1.5-1.5c0-0.2-1.1-0.4-2.1,0.3c-1.5,1.1-3.1,3.5-4.1,3.6c-1.7,0.2-4.4,2.3-6.6,1.9
	C22.3,37.4,20.9,38.3,20.9,38.3z"/>
<path id="_x2E_svg_6360_" fill="#D19C2A" d="M29.9,13.6c0,0-0.3,0.1,0,0.5c0.3,0.3,3-0.4,4.1-0.2s3.1-0.1,3.4,0.2
	c0.3,0.3-2.7,0-3.4,2.7l-0.1-0.5c0,0-1.1,1.6-0.4,4.1s5.8-5.7,6.9-5.7c1.1,0-0.2-1.7-2.1-1.8C36.3,12.8,32.8,11.9,29.9,13.6z"/>
<linearGradient id="_x2E_svg_5_" gradientUnits="userSpaceOnUse" x1="31.0834" y1="8.7481" x2="47.4526" y2="33.0164">
	<stop  offset="0" style="stop-color:#FDE267"/>
	<stop  offset="0.2036" style="stop-color:#FFD744"/>
	<stop  offset="0.7157" style="stop-color:#C97829"/>
</linearGradient>
<path id="_x2E_svg_6359_" fill="url(#_x2E_svg_5_)" d="M46.4,33.7c0.1-0.3,0.3-1.2,0.2-1.6c0,0,3-4.3,3.4-6.9
	c0.4-2.6,0.3-7.1-5.8-12.3c0,0-0.2-0.3,0-0.4c0,0-0.4-0.6-1.2,0c0,0-0.9-0.4-1.2-1.1c-0.3-0.7-3.7-1.2-4.4-1
	c-0.8,0.2-0.9,0.4-1.1,0.4c-0.2,0,0.6-0.5,1-0.6c0,0-2.6-0.3-3.5,0c0,0-0.2-0.1-0.1-0.2c0.2-0.1-1.5-0.2-2,0.2
	c-0.5,0.3-1.2,0.2-1.1,0.1s0.3-0.3,0.6-0.3c0,0-2-0.5-2.7,1c-0.7,1.5,0.5,2.6,1.5,2.5c0,0,0,0.5,0.5,0.5c0.5,0,2-0.7,3.7-0.5
	c1.7,0.2,3.5-0.1,5.4,0.8c0,0-4.5-0.3-5.5,2.8c0,0-0.2,0-0.2-0.2s-1,2.5,0.1,5.1s-1.1,3.4-1.2,4c-0.1,0.6,0.8,4.6,2.7,4.5
	s4.8,0.4,4.9,0.8c0.1,0.4,0.7,0.4,1,0.2s2.1,0.6,1.8,1.2c-0.3,0.6,0.6,0.5,1.2,0S46.3,33.1,46.4,33.7L46.4,33.7z"/>
<linearGradient id="_x2E_svg_6_" gradientUnits="userSpaceOnUse" x1="34.7637" y1="28.7074" x2="40.6771" y2="28.7074">
	<stop  offset="0" style="stop-color:#F8C01E"/>
	<stop  offset="0.3362" style="stop-color:#FDE267"/>
	<stop  offset="0.6143" style="stop-color:#FFD744"/>
	<stop  offset="1" style="stop-color:#C97829"/>
</linearGradient>
<path id="_x2E_svg_6358_" fill="url(#_x2E_svg_6_)" d="M34.8,29.7c0,0,0.3-1.8,1.4-2.2c0,0-0.1-1.8,0.6-2.2c0.6-0.4,1.8-1,2.6-0.6
	s1.7,1.2,1.1,3.2s-1.1,3.4-5.1,5C35.4,32.9,34.5,33.1,34.8,29.7z"/>
<path id="_x2E_svg_6357_" fill="#995123" d="M36.5,27.7c0,0,0,0.3-0.4,0.6c-0.4,0.2-0.9,1.1-0.9,1.6c0,0.5-0.2,0.9-0.1,1.1
	c0,0,0.2-0.9,0.6-1c0.3-0.1,1.1-1.6,1.1-2.1C36.7,27.5,36.5,27.5,36.5,27.7z"/>
<linearGradient id="_x2E_svg_7_" gradientUnits="userSpaceOnUse" x1="22.6241" y1="29.4404" x2="33.6606" y2="36.3368">
	<stop  offset="0" style="stop-color:#FDE267"/>
	<stop  offset="0.2036" style="stop-color:#FFD744"/>
	<stop  offset="0.7157" style="stop-color:#C97829"/>
</linearGradient>
<path id="_x2E_svg_6356_" fill="url(#_x2E_svg_7_)" d="M20.9,38.3c-0.2,0.1-0.5,0-0.5,0c-0.2-0.8,0.2-2.4,0.1-2.2s-0.3,0-0.3,0
	c0.1-1.1,1-1.7,0.9-2c-0.1-0.3,0.2-0.5,0.2-0.5s-0.2-0.2-0.1-0.4c0.1-0.2-0.1-0.7-0.1-0.6c0,0.1-0.2,0.2-0.2,0.2s-0.3-0.5,0.2-0.8
	c0.4-0.3,1.7-0.2,1.7,0.4c0,0.6,1.6,1.5,2,1.3c0.3-0.2,0.7-0.7,1.2-0.7c0.5,0,0.5,0.3,0.5,0.3L27,33l0.2,0.3c0,0,0.9,0.2,0.9-0.5
	c0-0.7-0.4-1.8-0.4-1.8l0.9-1.2h0.8c0,0,0.8-1,1.1-1.2c0.4-0.2,0.6-0.9,0.4-1.1c-0.2-0.2,1.2-1.6,1.9-1.9c0.7-0.3,2.8,5.5,2.6,6.5
	c-0.2,1-0.6,2.1-1,2.5c-0.5,0.5-1.3,0.6-1.8,1.3c-0.5,0.7-1.2,0.3-1.7,0.6c-0.5,0.2-1.4,0.9-1.4,0.9l-0.1-0.4c0,0-0.5,0.5-0.9,0.7
	c-0.4,0.1,0.1-0.6,0.1-0.6s-0.7,0.1-1.3,0.7c0,0-0.8-0.1-1,0c-0.2,0.1-0.6,0.7-1.2,0.8c-0.6,0.1-1.1,0-1.1,0l-0.1-0.3
	c0,0-0.2,0.4-0.3,0.5c0,0-0.1-0.5-0.2-0.5s-0.7,0.4-1,0.5C22,39,21.7,38.2,20.9,38.3L20.9,38.3z"/>
<linearGradient id="_x2E_svg_8_" gradientUnits="userSpaceOnUse" x1="25.7675" y1="28.3059" x2="26.9984" y2="22.9742">
	<stop  offset="0.297" style="stop-color:#FDE267"/>
	<stop  offset="0.5601" style="stop-color:#FFD744"/>
	<stop  offset="1" style="stop-color:#C97829"/>
</linearGradient>
<path id="_x2E_svg_6355_" fill="url(#_x2E_svg_8_)" d="M24.8,22.5c0,0,1.8,0.5,2.7,1.8c1,1.3,1.1,2.1,0.8,2.4
	c-0.3,0.3-2.1,1-2.3,1.5c-0.3,0.5-1.6-0.3-1.5-1c0.1-0.7,0.2-1.7,0.2-1.7l0.3-0.2l0.1-1.3l-0.3-0.2c0,0,0-0.6,0.2-0.7
	S24.8,22.5,24.8,22.5z"/>
<linearGradient id="_x2E_svg_9_" gradientUnits="userSpaceOnUse" x1="25.4772" y1="25.7117" x2="26.132" y2="23.8101">
	<stop  offset="0.1061" style="stop-color:#F8C01E"/>
	<stop  offset="0.3637" style="stop-color:#FDE267"/>
	<stop  offset="0.6834" style="stop-color:#FFD744"/>
	<stop  offset="1" style="stop-color:#F08B26"/>
</linearGradient>
<path id="_x2E_svg_6354_" fill="url(#_x2E_svg_9_)" d="M25.1,23.9l0.2-0.2l-0.1-0.2c0,0,1.1,0.4,1.7,1.2c0,0-0.5,0.8-2.2,0.8
	l0.3-0.3L25.1,23.9z"/>
<path id="_x2E_svg_6352_" fill="#995123" d="M25.4,24.5c0,0.3,0,0.6-0.1,0.6c-0.1,0-0.2-0.3-0.2-0.6c0-0.3,0.1-0.6,0.2-0.6
	C25.4,24,25.4,24.2,25.4,24.5z"/>
<path id="_x2E_svg_6351_" fill="#995123" d="M19.9,28.7c0.3,0.4,0.9,0.6,1.1,0.5c0,0,0.1,0,0.1,0.2c0,0.1,1.8,0.2,2.1,0.2
	c0.3,0.1,0.5-0.3,0.8-0.4c0.3-0.1,0.4-0.5,0.1-0.8c-0.3-0.2-1.1-0.1-1.2,0s-1.4-0.2-1.7,0.1C20.7,28.9,19.9,28.7,19.9,28.7z"/>
<path id="_x2E_svg_6350_" fill="#D19C2A" d="M23.6,27.4c0,0-1.2-0.2-1.8,0.1c-0.6,0.3,0.5-1.3,1.4-1.8
	C24.1,25.3,22.8,26.7,23.6,27.4z"/>
<path id="_x2E_svg_6349_" fill="#995123" d="M24.5,21.8c-0.7,0.1-1.4-0.2-1.8-0.8c-0.3-0.5-0.6-1.1-0.5-1.6c0,0,0.2,0.2,0.3,0.2
	s1.3,0.3,1.6,0.5c0.3,0.2,2.6,1,3.4,2.2C27.5,22.3,26.1,21.6,24.5,21.8z"/>
<path id="_x2E_svg_6348_" fill="#995123" d="M40.7,40.5c0,0,1.6-3.2,3.5-4.8s-0.7-1.3-0.7-1.3s1.5-0.8,1.9-0.8s-0.8-1-1.6-0.7
	s0.5-1.2,1.4-1.3c0.9-0.1,1.3-0.7,1.2-1.3c-0.1-0.5-0.9-1-1.3-0.7c-0.3,0.3,0-1.3,1.6-2.4s-0.2-1.7,0-2.5s3.7-1.1,0.9-8l0,0
	c2.5,3.6,2.5,6.6,2.2,8.5c-0.4,2.6-3.4,6.9-3.4,6.9c0.1,0.3-0.1,1.3-0.2,1.6c-0.1,0.3-0.7,1.1-0.7,1.1c0.3,1,0,1.6,0,1.6l-0.6,0.3
	c-0.4,0.6-2.1,1.9-4.2,3.4"/>
<linearGradient id="_x2E_svg_10_" gradientUnits="userSpaceOnUse" x1="21.5686" y1="67.3918" x2="59.4391" y2="48.9211">
	<stop  offset="0" style="stop-color:#F8C01E"/>
	<stop  offset="0.3362" style="stop-color:#FDE267"/>
	<stop  offset="0.6143" style="stop-color:#FFD744"/>
	<stop  offset="1" style="stop-color:#C97829"/>
</linearGradient>
<path id="_x2E_svg_6347_" fill="url(#_x2E_svg_10_)" d="M48.5,41.5c0,0,5.1,3.9,5.5,4.2c0.4,0.3,6.4,5.1,7.3,7.1s-0.6,8.4-0.6,8.4
	s-30.2,10.3-32.2,8.5c-2-1.8-4.6-4.1-7.5-4.6s2.3-2.6,2.3-2.6s15.8-6.1,16.1-8.2C39.7,52,47.4,41.6,48.5,41.5z"/>
<path id="_x2E_svg_6346_" fill="#995123" d="M31.3,46.1l0-0.8c0,0-0.8-2.1-1-2.2c-0.3-0.1-7.1,14.3-7.8,17c-0.7,2.7,1.8,2.3,1.8,2.3
	l4.8-7.7L31.3,46.1z"/>
<linearGradient id="_x2E_svg_11_" gradientUnits="userSpaceOnUse" x1="34.568" y1="42.9305" x2="38.6616" y2="47.0241">
	<stop  offset="0" style="stop-color:#F8C01E"/>
	<stop  offset="0.1957" style="stop-color:#FDE267"/>
	<stop  offset="0.3513" style="stop-color:#FFD744"/>
	<stop  offset="1" style="stop-color:#C97829"/>
</linearGradient>
<path id="_x2E_svg_6345_" fill="url(#_x2E_svg_11_)" d="M45.5,36.4c0,0-5.5,2.1-9.1,5.2c-3.6,3.1-5.4,4.8-5.6,5.1
	C30.6,47,30,49,30,49l-1.7,5l1.6,1.8c0,0,15.9-16.6,15.8-18.3C45.7,37.5,45.7,36.5,45.5,36.4z"/>
<linearGradient id="_x2E_svg_12_" gradientUnits="userSpaceOnUse" x1="26.123" y1="53.2206" x2="29.1411" y2="53.2206">
	<stop  offset="0" style="stop-color:#F8C01E"/>
	<stop  offset="0.1957" style="stop-color:#FDE267"/>
	<stop  offset="0.3513" style="stop-color:#FFD744"/>
	<stop  offset="1" style="stop-color:#C97829"/>
</linearGradient>
<path id="_x2E_svg_6344_" fill="url(#_x2E_svg_12_)" d="M28.9,49.6c0,0-1,0.5-1.1,1s-1,3.2-1.3,4.2c-0.4,1-0.3,2.1-0.3,2.1
	s0.5-0.1,1-0.8c0.4-0.7,1.2-3.1,1.6-3.7S29.4,50.2,28.9,49.6z"/>
<linearGradient id="_x2E_svg_13_" gradientUnits="userSpaceOnUse" x1="26.6371" y1="53.2424" x2="30.3594" y2="53.2424">
	<stop  offset="0" style="stop-color:#F8C01E"/>
	<stop  offset="0.1957" style="stop-color:#FDE267"/>
	<stop  offset="0.3513" style="stop-color:#FFD744"/>
	<stop  offset="1" style="stop-color:#C97829"/>
</linearGradient>
<path id="_x2E_svg_6343_" fill="url(#_x2E_svg_13_)" d="M29.1,49.8c0,0-0.5,1.1-0.4,1.5c0.1,0.4-1.5,2.1-1.6,2.8
	c-0.1,0.8-0.5,2.7-0.5,2.7s3-2.8,3.4-3.7c0.4-0.9,0.3-1.3,0.2-2.3S29.8,49.4,29.1,49.8z"/>
<linearGradient id="_x2E_svg_14_" gradientUnits="userSpaceOnUse" x1="20.134" y1="49.9245" x2="49.8812" y2="49.9245">
	<stop  offset="0" style="stop-color:#F8C01E"/>
	<stop  offset="0.3362" style="stop-color:#FDE267"/>
	<stop  offset="0.6143" style="stop-color:#FFD744"/>
	<stop  offset="1" style="stop-color:#C97829"/>
</linearGradient>
<path id="_x2E_svg_6342_" fill="url(#_x2E_svg_14_)" d="M45.5,36.4c0,0,0.2-0.8,0.3-0.8c0.3,0,0.7-0.1,0.7,0.4s1.2,1.9,1.3,2.5
	c0,0.6,0,0.9,0,0.9s1.5,1.5,1.8,1.9c0.3,0.4,0.4,0.6,0.4,0.9s-3.7,3.8-7.6,11.6c0,0-5.7,5.9-7.9,6.6c-2.2,0.7-3.4,1.8-5,2
	c-1.7,0.2-5.4,0.6-7.5,1.7c0,0-1-0.5-1.7,0c-0.7,0.5,5.3-7.1,6.3-8s4.7-4.5,4.7-4.8c0-0.3,2.7-2.7,3.2-3.4c0.5-0.7,7.6-7.8,8.4-8.4
	C43.5,39,45.7,37.6,45.5,36.4z"/>
<path id="_x2E_svg_6341_" fill="#FEE28F" d="M26.5,56.2c1-0.8,4.7-4.5,4.7-4.8c0-0.3,2.7-2.7,3.2-3.4c0.5-0.7,7.6-7.8,8.4-8.4
	c0.8-0.6,2.9-1.9,2.7-3.1c0,0,0.2-0.8,0.3-0.8c0.3,0,0.7-0.1,0.7,0.4c0,0,0.1,1-0.5,1.6c-0.6,0.7-5.4,4.1-6.9,5.9
	c-1.4,1.8-6,6.1-7.4,7.6C31.7,51.2,28.4,54.8,26.5,56.2L26.5,56.2z"/>
<path id="_x2E_svg_6340_" fill="#995123" d="M37.1,28c0,0-0.1-1.6,0-1.9s0.6-1.4,2.1-1.2c1.5,0.3,0.6,2.5,0.6,2.5s0.5-2.2-0.6-2.2
	s-1.4,0.8-1.5,1.4C37.7,27.3,37.5,28.1,37.1,28z"/>
<path id="_x2E_svg_6339_" fill="#995123" d="M39.3,28.4c0,0-0.2,1.4-0.8,1.6c-0.7,0.2-2.2,0.2-2.3,0.6c-0.1,0.5,0,0.7,0,0.7
	s0-0.6,0.3-0.6c0.3,0,1.2,0.1,1.6,0.1C38.4,30.7,39.4,30.2,39.3,28.4z"/>
<path id="_x2E_svg_6338_" fill="#F6C016" d="M27.1,24.9c0,0,0.3,0.3,0.4,0.7c0.1,0.5-0.5,0.9-1,1c-0.5,0.1-0.7,0.7-0.7,0.7
	s-0.1-1.2,0.5-1.2S27.3,25.6,27.1,24.9z"/>
<linearGradient id="_x2E_svg_15_" gradientUnits="userSpaceOnUse" x1="20.168" y1="32.3006" x2="25.2986" y2="32.3006">
	<stop  offset="0" style="stop-color:#FDE267"/>
	<stop  offset="0.2036" style="stop-color:#FFD744"/>
	<stop  offset="0.7157" style="stop-color:#C97829"/>
</linearGradient>
<path id="_x2E_svg_6337_" fill="url(#_x2E_svg_15_)" d="M21.1,29.4c-0.1,0.1-1.8,1.2-0.2,3.4c0,0,0.2-0.1,0.2-0.2
	c0-0.1,0.2,0.4,0.1,0.6c0,0,0.5-0.2,0.7-0.8c0.2-0.5,0.8,1.6,1.1,2c0.3,0.4,0.6-0.4,1.1,0c0.5,0.4,1.2,0.7,1.2,1.1
	c0.1,0.4,0.1-1.8-0.2-2.3c-0.3-0.5-0.4-0.6-0.5-1.1c-0.1-0.4-0.5-0.6-0.5-0.6s0-0.6-0.1-0.9s-0.2-0.7-0.5-0.7
	C23.2,29.7,22.7,28.7,21.1,29.4z"/>
<linearGradient id="_x2E_svg_16_" gradientUnits="userSpaceOnUse" x1="25.0627" y1="48.9608" x2="29.3766" y2="48.9608">
	<stop  offset="0" style="stop-color:#F8C01E"/>
	<stop  offset="0.2766" style="stop-color:#FDE267"/>
	<stop  offset="0.4665" style="stop-color:#FFD744"/>
	<stop  offset="1" style="stop-color:#C97829"/>
</linearGradient>
<path id="_x2E_svg_6336_" fill="url(#_x2E_svg_16_)" d="M29.3,48.2c0,0-0.2-0.4-1.6-0.4c-1.4,0.1-2.1-0.2-2.6,1.1
	c0,0,0.3,0.5,0.7,0.4c0.4-0.1,1.3,0.9,1.7,0.7c0.3-0.1,1.4-0.3,1.5-0.5C29,49.4,29.6,48.8,29.3,48.2z"/>
<path id="_x2E_svg_6335_" fill="#F6C016" d="M30.7,48.7l-0.6-0.8c0,0-1.2-0.1-1.4,0.6c-0.2,0.6-0.5,1.7-0.2,1.8
	c0.3,0.1,0.9,0.5,1.4-0.1c0.4-0.4,0.6-0.5,0.8-0.7C30.9,49.2,30.9,48.9,30.7,48.7z"/>
<linearGradient id="_x2E_svg_17_" gradientUnits="userSpaceOnUse" x1="30.3179" y1="47.8099" x2="33.1252" y2="50.0032">
	<stop  offset="0" style="stop-color:#F8C01E"/>
	<stop  offset="0.1957" style="stop-color:#FDE267"/>
	<stop  offset="0.3513" style="stop-color:#FFD744"/>
	<stop  offset="1" style="stop-color:#C97829"/>
</linearGradient>
<path id="_x2E_svg_6334_" fill="url(#_x2E_svg_17_)" d="M30,48.2c0,0,1-0.6,1.5-0.7c0.5-0.1,1.3,0,1.3,0l0.3,2.5
	c0,0-1.5,0.1-2.8-0.4C28.9,49.2,29.3,49.3,30,48.2z"/>
<path id="_x2E_svg_6330_" fill="#D19C2A" d="M49.9,42.2c0,0.3-3.7,3.8-7.6,11.6c0,0-5.7,5.9-7.9,6.6c-2.2,0.7-3.4,1.8-5,2
	c-1.7,0.2-5.4,0.6-7.5,1.7c0,0-1-0.5-1.7,0c0,0,1.4,0.2,1.7,0.5c0,0,6.7-1.9,7.7-1.2c1,0.6,5.5-1.8,5.7-2c0.2-0.2,7.4-6.2,7.7-6.7
	c0.3-0.5,5.3-9.9,7.5-11.6L49.9,42.2z"/>
<path id="_x2E_svg_6329_" fill="#FEE28F" d="M28.8,14.3c0,0-2.4,0.9-3.6,3s-1.2,1.4-1,1.8c0.2,0.3,1.1-0.5,1.4-1.3
	S26.3,15.7,28.8,14.3z"/>
<path id="_x2E_svg_6326_" fill="#FEE28F" d="M23.7,23.6c0,0-2.9,2.9-3,3.1c-0.1,0.2,0.2,0.2,0.3,0c0.1-0.2,2.5-2.8,2.7-2.9
	C24,23.7,23.9,23.5,23.7,23.6z"/>
<linearGradient id="_x2E_svg_18_" gradientUnits="userSpaceOnUse" x1="36" y1="0" x2="36" y2="72">
	<stop  offset="0" style="stop-color:#FDE267"/>
	<stop  offset="0.2137" style="stop-color:#FFD743"/>
	<stop  offset="0.7342" style="stop-color:#F9C01C"/>
	<stop  offset="1" style="stop-color:#C97829"/>
</linearGradient>
<path id="_x2E_svg_6312_" fill="url(#_x2E_svg_18_)" d="M36,0C16.1,0,0,16.1,0,36c0,19.9,16.1,36,36,36s36-16.1,36-36
	C72,16.1,55.9,0,36,0z M36,67.3c-17.5,0-31.6-14.1-31.6-31.6C4.4,18.2,18.6,4.1,36,4.1s31.6,14.1,31.6,31.6
	C67.6,53.1,53.5,67.3,36,67.3z"/>
<g id="_x2E_svg_6325_">
	<linearGradient id="SVGID_1_" gradientUnits="userSpaceOnUse" x1="55.0644" y1="22.4732" x2="56.3512" y2="22.4732">
		<stop  offset="0" style="stop-color:#F8C01E"/>
		<stop  offset="0.3362" style="stop-color:#FDE267"/>
		<stop  offset="0.6143" style="stop-color:#FFD744"/>
		<stop  offset="1" style="stop-color:#C97829"/>
	</linearGradient>
	<path fill="url(#SVGID_1_)" d="M56.2,22.5h-0.9v0.8h-0.2v-1.8h0.2v0.8h0.9v-0.8h0.2v1.8h-0.2V22.5z"/>
	<linearGradient id="SVGID_2_" gradientUnits="userSpaceOnUse" x1="56.6226" y1="22.4732" x2="58.1312" y2="22.4732">
		<stop  offset="0" style="stop-color:#F8C01E"/>
		<stop  offset="0.3362" style="stop-color:#FDE267"/>
		<stop  offset="0.6143" style="stop-color:#FFD744"/>
		<stop  offset="1" style="stop-color:#C97829"/>
	</linearGradient>
	<path fill="url(#SVGID_2_)" d="M57.8,22.9H57l-0.2,0.5h-0.2l0.7-1.8h0.2l0.7,1.8h-0.2L57.8,22.9z M57.1,22.7h0.6l-0.2-0.5
		c0-0.1,0-0.1-0.1-0.2c0-0.1,0-0.1-0.1-0.2h0c0,0.1,0,0.1-0.1,0.2c0,0.1,0,0.1-0.1,0.2L57.1,22.7z"/>
	<linearGradient id="SVGID_3_" gradientUnits="userSpaceOnUse" x1="58.0712" y1="22.4719" x2="59.3451" y2="22.4719">
		<stop  offset="0" style="stop-color:#F8C01E"/>
		<stop  offset="0.3362" style="stop-color:#FDE267"/>
		<stop  offset="0.6143" style="stop-color:#FFD744"/>
		<stop  offset="1" style="stop-color:#C97829"/>
	</linearGradient>
	<path fill="url(#SVGID_3_)" d="M58.8,21.8v1.6h-0.2v-1.6l-0.5,0v-0.2h1.3v0.2L58.8,21.8z"/>
</g>
<g id="_x2E_svg_6324_">
	<linearGradient id="SVGID_4_" gradientUnits="userSpaceOnUse" x1="50.5959" y1="25.33" x2="53.3492" y2="25.33">
		<stop  offset="0" style="stop-color:#F8C01E"/>
		<stop  offset="0.3362" style="stop-color:#FDE267"/>
		<stop  offset="0.6143" style="stop-color:#FFD744"/>
		<stop  offset="1" style="stop-color:#C97829"/>
	</linearGradient>
	<path fill="url(#SVGID_4_)" d="M51.8,26.3l-0.7-1.4c0-0.1-0.1-0.2-0.1-0.3c0-0.1-0.1-0.2-0.1-0.3h0c0,0.1,0,0.3,0,0.4
		c0,0.1,0,0.2,0,0.3v1.8h-0.3v-3H51l0.7,1.6c0,0,0,0.1,0.1,0.2c0,0.1,0.1,0.1,0.1,0.2c0,0.1,0,0.1,0.1,0.2c0,0.1,0,0.1,0,0.1h0
		c0,0,0-0.1,0-0.1c0-0.1,0-0.1,0.1-0.2c0-0.1,0-0.1,0.1-0.2s0-0.1,0.1-0.2l0.7-1.6h0.4v3H53V25c0-0.1,0-0.2,0-0.3c0-0.1,0-0.3,0-0.4
		h0c0,0.1-0.1,0.2-0.1,0.3c0,0.1-0.1,0.2-0.1,0.3l-0.7,1.4H51.8z"/>
	<linearGradient id="SVGID_5_" gradientUnits="userSpaceOnUse" x1="54.0764" y1="25.33" x2="56.3863" y2="25.33">
		<stop  offset="0" style="stop-color:#F8C01E"/>
		<stop  offset="0.3362" style="stop-color:#FDE267"/>
		<stop  offset="0.6143" style="stop-color:#FFD744"/>
		<stop  offset="1" style="stop-color:#C97829"/>
	</linearGradient>
	<path fill="url(#SVGID_5_)" d="M56.4,25.3c0,0.5-0.1,0.9-0.4,1.1c-0.2,0.3-0.6,0.4-1.1,0.4h-0.8v-3h0.8c0.5,0,0.9,0.1,1.1,0.4
		C56.3,24.5,56.4,24.8,56.4,25.3z M56,25.3c0-0.2,0-0.4-0.1-0.5c-0.1-0.1-0.1-0.3-0.2-0.4c-0.1-0.1-0.2-0.2-0.4-0.2
		c-0.1,0-0.3-0.1-0.5-0.1h-0.5v2.4h0.5c0.2,0,0.3,0,0.5-0.1c0.1,0,0.3-0.1,0.4-0.2c0.1-0.1,0.2-0.2,0.2-0.4C56,25.7,56,25.5,56,25.3
		z"/>
	<linearGradient id="SVGID_6_" gradientUnits="userSpaceOnUse" x1="56.7942" y1="25.33" x2="58.9445" y2="25.33">
		<stop  offset="0" style="stop-color:#F8C01E"/>
		<stop  offset="0.3362" style="stop-color:#FDE267"/>
		<stop  offset="0.6143" style="stop-color:#FFD744"/>
		<stop  offset="1" style="stop-color:#C97829"/>
	</linearGradient>
	<path fill="url(#SVGID_6_)" d="M58.2,24.1c-0.3,0-0.6,0.1-0.8,0.3c-0.2,0.2-0.3,0.5-0.3,0.9c0,0.4,0.1,0.7,0.3,0.9
		c0.2,0.2,0.5,0.3,0.8,0.3c0.2,0,0.5,0,0.7-0.1l0.1,0.3c-0.1,0.1-0.2,0.1-0.3,0.1c-0.1,0-0.3,0-0.4,0c-0.2,0-0.5,0-0.6-0.1
		c-0.2-0.1-0.3-0.2-0.4-0.3c-0.1-0.1-0.2-0.3-0.3-0.5c-0.1-0.2-0.1-0.4-0.1-0.6c0-0.2,0-0.4,0.1-0.6c0.1-0.2,0.2-0.4,0.3-0.5
		c0.1-0.1,0.3-0.2,0.4-0.3c0.2-0.1,0.4-0.1,0.6-0.1c0.2,0,0.3,0,0.4,0c0.1,0,0.2,0.1,0.3,0.1l-0.1,0.3
		C58.7,24.1,58.4,24.1,58.2,24.1z"/>
	<linearGradient id="SVGID_7_" gradientUnits="userSpaceOnUse" x1="59.2328" y1="25.33" x2="61.3831" y2="25.33">
		<stop  offset="0" style="stop-color:#F8C01E"/>
		<stop  offset="0.3362" style="stop-color:#FDE267"/>
		<stop  offset="0.6143" style="stop-color:#FFD744"/>
		<stop  offset="1" style="stop-color:#C97829"/>
	</linearGradient>
	<path fill="url(#SVGID_7_)" d="M60.6,24.1c-0.3,0-0.6,0.1-0.8,0.3c-0.2,0.2-0.3,0.5-0.3,0.9c0,0.4,0.1,0.7,0.3,0.9
		c0.2,0.2,0.5,0.3,0.8,0.3c0.2,0,0.5,0,0.7-0.1l0.1,0.3c-0.1,0.1-0.2,0.1-0.3,0.1c-0.1,0-0.3,0-0.4,0c-0.2,0-0.5,0-0.6-0.1
		c-0.2-0.1-0.3-0.2-0.4-0.3c-0.1-0.1-0.2-0.3-0.3-0.5c-0.1-0.2-0.1-0.4-0.1-0.6c0-0.2,0-0.4,0.1-0.6c0.1-0.2,0.2-0.4,0.3-0.5
		c0.1-0.1,0.3-0.2,0.4-0.3c0.2-0.1,0.4-0.1,0.6-0.1c0.2,0,0.3,0,0.4,0c0.1,0,0.2,0.1,0.3,0.1l-0.1,0.3
		C61.1,24.1,60.9,24.1,60.6,24.1z"/>
	<linearGradient id="SVGID_8_" gradientUnits="userSpaceOnUse" x1="61.6713" y1="25.33" x2="63.8217" y2="25.33">
		<stop  offset="0" style="stop-color:#F8C01E"/>
		<stop  offset="0.3362" style="stop-color:#FDE267"/>
		<stop  offset="0.6143" style="stop-color:#FFD744"/>
		<stop  offset="1" style="stop-color:#C97829"/>
	</linearGradient>
	<path fill="url(#SVGID_8_)" d="M63.1,24.1c-0.3,0-0.6,0.1-0.8,0.3c-0.2,0.2-0.3,0.5-0.3,0.9c0,0.4,0.1,0.7,0.3,0.9
		c0.2,0.2,0.5,0.3,0.8,0.3c0.2,0,0.5,0,0.7-0.1l0.1,0.3c-0.1,0.1-0.2,0.1-0.3,0.1c-0.1,0-0.3,0-0.4,0c-0.2,0-0.5,0-0.6-0.1
		c-0.2-0.1-0.3-0.2-0.4-0.3c-0.1-0.1-0.2-0.3-0.3-0.5c-0.1-0.2-0.1-0.4-0.1-0.6c0-0.2,0-0.4,0.1-0.6c0.1-0.2,0.2-0.4,0.3-0.5
		c0.1-0.1,0.3-0.2,0.4-0.3c0.2-0.1,0.4-0.1,0.6-0.1c0.2,0,0.3,0,0.4,0c0.1,0,0.2,0.1,0.3,0.1l-0.1,0.3
		C63.5,24.1,63.3,24.1,63.1,24.1z"/>
</g>
<g id="_x2E_svg_6323_">
	<linearGradient id="SVGID_9_" gradientUnits="userSpaceOnUse" x1="51.2141" y1="35.2214" x2="53.9674" y2="35.2214">
		<stop  offset="0" style="stop-color:#F8C01E"/>
		<stop  offset="0.3362" style="stop-color:#FDE267"/>
		<stop  offset="0.6143" style="stop-color:#FFD744"/>
		<stop  offset="1" style="stop-color:#C97829"/>
	</linearGradient>
	<path fill="url(#SVGID_9_)" d="M52.4,36.2l-0.7-1.4c0-0.1-0.1-0.2-0.1-0.3c0-0.1-0.1-0.2-0.1-0.3h0c0,0.1,0,0.3,0,0.4
		c0,0.1,0,0.2,0,0.3v1.8h-0.3v-3h0.4l0.7,1.6c0,0,0,0.1,0.1,0.2c0,0.1,0.1,0.1,0.1,0.2c0,0.1,0,0.1,0.1,0.2c0,0.1,0,0.1,0,0.1h0
		c0,0,0-0.1,0-0.1c0-0.1,0-0.1,0.1-0.2c0-0.1,0-0.1,0.1-0.2s0-0.1,0.1-0.2l0.7-1.6H54v3h-0.3v-1.8c0-0.1,0-0.2,0-0.3
		c0-0.1,0-0.3,0-0.4h0c0,0.1-0.1,0.2-0.1,0.3c0,0.1-0.1,0.2-0.1,0.3l-0.7,1.4H52.4z"/>
	<linearGradient id="SVGID_10_" gradientUnits="userSpaceOnUse" x1="54.6946" y1="35.2214" x2="57.0045" y2="35.2214">
		<stop  offset="0" style="stop-color:#F8C01E"/>
		<stop  offset="0.3362" style="stop-color:#FDE267"/>
		<stop  offset="0.6143" style="stop-color:#FFD744"/>
		<stop  offset="1" style="stop-color:#C97829"/>
	</linearGradient>
	<path fill="url(#SVGID_10_)" d="M57,35.2c0,0.5-0.1,0.9-0.4,1.1c-0.2,0.3-0.6,0.4-1.1,0.4h-0.8v-3h0.8c0.5,0,0.9,0.1,1.1,0.4
		C56.9,34.4,57,34.7,57,35.2z M56.7,35.2c0-0.2,0-0.4-0.1-0.5c-0.1-0.1-0.1-0.3-0.2-0.4c-0.1-0.1-0.2-0.2-0.4-0.2
		c-0.1,0-0.3-0.1-0.5-0.1H55v2.4h0.5c0.2,0,0.3,0,0.5-0.1c0.1,0,0.3-0.1,0.4-0.2c0.1-0.1,0.2-0.2,0.2-0.4
		C56.6,35.6,56.7,35.4,56.7,35.2z"/>
	<linearGradient id="SVGID_11_" gradientUnits="userSpaceOnUse" x1="57.4124" y1="35.2214" x2="59.5628" y2="35.2214">
		<stop  offset="0" style="stop-color:#F8C01E"/>
		<stop  offset="0.3362" style="stop-color:#FDE267"/>
		<stop  offset="0.6143" style="stop-color:#FFD744"/>
		<stop  offset="1" style="stop-color:#C97829"/>
	</linearGradient>
	<path fill="url(#SVGID_11_)" d="M58.8,34c-0.3,0-0.6,0.1-0.8,0.3c-0.2,0.2-0.3,0.5-0.3,0.9c0,0.4,0.1,0.7,0.3,0.9
		c0.2,0.2,0.5,0.3,0.8,0.3c0.2,0,0.5,0,0.7-0.1l0.1,0.3c-0.1,0.1-0.2,0.1-0.3,0.1c-0.1,0-0.3,0-0.4,0c-0.2,0-0.5,0-0.6-0.1
		c-0.2-0.1-0.3-0.2-0.4-0.3c-0.1-0.1-0.2-0.3-0.3-0.5c-0.1-0.2-0.1-0.4-0.1-0.6c0-0.2,0-0.4,0.1-0.6c0.1-0.2,0.2-0.4,0.3-0.5
		c0.1-0.1,0.3-0.2,0.4-0.3c0.2-0.1,0.4-0.1,0.6-0.1c0.2,0,0.3,0,0.4,0c0.1,0,0.2,0.1,0.3,0.1l-0.1,0.3C59.3,34,59.1,34,58.8,34z"/>
	<linearGradient id="SVGID_12_" gradientUnits="userSpaceOnUse" x1="59.851" y1="35.2214" x2="62.0013" y2="35.2214">
		<stop  offset="0" style="stop-color:#F8C01E"/>
		<stop  offset="0.3362" style="stop-color:#FDE267"/>
		<stop  offset="0.6143" style="stop-color:#FFD744"/>
		<stop  offset="1" style="stop-color:#C97829"/>
	</linearGradient>
	<path fill="url(#SVGID_12_)" d="M61.3,34c-0.3,0-0.6,0.1-0.8,0.3c-0.2,0.2-0.3,0.5-0.3,0.9c0,0.4,0.1,0.7,0.3,0.9
		c0.2,0.2,0.5,0.3,0.8,0.3c0.2,0,0.5,0,0.7-0.1l0.1,0.3c-0.1,0.1-0.2,0.1-0.3,0.1c-0.1,0-0.3,0-0.4,0c-0.2,0-0.5,0-0.6-0.1
		c-0.2-0.1-0.3-0.2-0.4-0.3c-0.1-0.1-0.2-0.3-0.3-0.5c-0.1-0.2-0.1-0.4-0.1-0.6c0-0.2,0-0.4,0.1-0.6c0.1-0.2,0.2-0.4,0.3-0.5
		c0.1-0.1,0.3-0.2,0.4-0.3c0.2-0.1,0.4-0.1,0.6-0.1c0.2,0,0.3,0,0.4,0c0.1,0,0.2,0.1,0.3,0.1l-0.1,0.3C61.7,34,61.5,34,61.3,34z"/>
	<linearGradient id="SVGID_13_" gradientUnits="userSpaceOnUse" x1="62.2895" y1="35.2214" x2="64.4399" y2="35.2214">
		<stop  offset="0" style="stop-color:#F8C01E"/>
		<stop  offset="0.3362" style="stop-color:#FDE267"/>
		<stop  offset="0.6143" style="stop-color:#FFD744"/>
		<stop  offset="1" style="stop-color:#C97829"/>
	</linearGradient>
	<path fill="url(#SVGID_13_)" d="M63.7,34c-0.3,0-0.6,0.1-0.8,0.3c-0.2,0.2-0.3,0.5-0.3,0.9c0,0.4,0.1,0.7,0.3,0.9
		c0.2,0.2,0.5,0.3,0.8,0.3c0.2,0,0.5,0,0.7-0.1l0.1,0.3c-0.1,0.1-0.2,0.1-0.3,0.1c-0.1,0-0.3,0-0.4,0c-0.2,0-0.5,0-0.6-0.1
		c-0.2-0.1-0.3-0.2-0.4-0.3c-0.1-0.1-0.2-0.3-0.3-0.5c-0.1-0.2-0.1-0.4-0.1-0.6c0-0.2,0-0.4,0.1-0.6c0.1-0.2,0.2-0.4,0.3-0.5
		c0.1-0.1,0.3-0.2,0.4-0.3c0.2-0.1,0.4-0.1,0.6-0.1c0.2,0,0.3,0,0.4,0c0.1,0,0.2,0.1,0.3,0.1l-0.1,0.3C64.1,34,63.9,34,63.7,34z"/>
</g>
<g id="_x2E_svg_6320_">
	<linearGradient id="SVGID_14_" gradientUnits="userSpaceOnUse" x1="54.623" y1="39.0956" x2="57.0793" y2="39.0956">
		<stop  offset="0" style="stop-color:#F8C01E"/>
		<stop  offset="0.3362" style="stop-color:#FDE267"/>
		<stop  offset="0.6143" style="stop-color:#FFD744"/>
		<stop  offset="1" style="stop-color:#C97829"/>
	</linearGradient>
	<path fill="url(#SVGID_14_)" d="M55.9,39.3L55.9,39.3L55,40.6h-0.4l1-1.6l-1-1.4h0.4l0.8,1.2l0.8-1.2H57L56,39l1,1.6h-0.4
		L55.9,39.3z"/>
	<linearGradient id="SVGID_15_" gradientUnits="userSpaceOnUse" x1="57.3232" y1="39.0956" x2="59.4735" y2="39.0956">
		<stop  offset="0" style="stop-color:#F8C01E"/>
		<stop  offset="0.3362" style="stop-color:#FDE267"/>
		<stop  offset="0.6143" style="stop-color:#FFD744"/>
		<stop  offset="1" style="stop-color:#C97829"/>
	</linearGradient>
	<path fill="url(#SVGID_15_)" d="M58.7,37.9c-0.3,0-0.6,0.1-0.8,0.3c-0.2,0.2-0.3,0.5-0.3,0.9c0,0.4,0.1,0.7,0.3,0.9
		c0.2,0.2,0.5,0.3,0.8,0.3c0.2,0,0.5,0,0.7-0.1l0.1,0.3c-0.1,0.1-0.2,0.1-0.3,0.1c-0.1,0-0.3,0-0.4,0c-0.2,0-0.5,0-0.6-0.1
		c-0.2-0.1-0.3-0.2-0.4-0.3c-0.1-0.1-0.2-0.3-0.3-0.5c-0.1-0.2-0.1-0.4-0.1-0.6c0-0.2,0-0.4,0.1-0.6c0.1-0.2,0.2-0.4,0.3-0.5
		c0.1-0.1,0.3-0.2,0.4-0.3c0.2-0.1,0.4-0.1,0.6-0.1c0.2,0,0.3,0,0.4,0c0.1,0,0.2,0.1,0.3,0.1L59.4,38C59.2,37.9,59,37.9,58.7,37.9z"
		/>
	<linearGradient id="SVGID_16_" gradientUnits="userSpaceOnUse" x1="59.7307" y1="39.0956" x2="62.2712" y2="39.0956">
		<stop  offset="0" style="stop-color:#F8C01E"/>
		<stop  offset="0.3362" style="stop-color:#FDE267"/>
		<stop  offset="0.6143" style="stop-color:#FFD744"/>
		<stop  offset="1" style="stop-color:#C97829"/>
	</linearGradient>
	<path fill="url(#SVGID_16_)" d="M61.9,37.6h0.3l-1.1,3h-0.3l-1.1-3h0.3l0.7,1.9c0,0.1,0.1,0.2,0.1,0.4c0,0.1,0.1,0.2,0.1,0.4h0
		c0-0.1,0.1-0.2,0.1-0.4s0.1-0.2,0.1-0.4L61.9,37.6z"/>
	<linearGradient id="SVGID_17_" gradientUnits="userSpaceOnUse" x1="62.7324" y1="39.0956" x2="63.0693" y2="39.0956">
		<stop  offset="0" style="stop-color:#F8C01E"/>
		<stop  offset="0.3362" style="stop-color:#FDE267"/>
		<stop  offset="0.6143" style="stop-color:#FFD744"/>
		<stop  offset="1" style="stop-color:#C97829"/>
	</linearGradient>
	<path fill="url(#SVGID_17_)" d="M63.1,40.6h-0.3v-3h0.3V40.6z"/>
</g>
<g id="_x2E_svg_6319_">
	<linearGradient id="SVGID_18_" gradientUnits="userSpaceOnUse" x1="52.9059" y1="29.3744" x2="55.3622" y2="29.3744">
		<stop  offset="0" style="stop-color:#F8C01E"/>
		<stop  offset="0.3362" style="stop-color:#FDE267"/>
		<stop  offset="0.6143" style="stop-color:#FFD744"/>
		<stop  offset="1" style="stop-color:#C97829"/>
	</linearGradient>
	<path fill="url(#SVGID_18_)" d="M54.1,29.6L54.1,29.6l-0.9,1.3h-0.4l1-1.6l-1-1.4h0.4l0.8,1.2l0.8-1.2h0.4l-1,1.4l1,1.6H55
		L54.1,29.6z"/>
	<linearGradient id="SVGID_19_" gradientUnits="userSpaceOnUse" x1="55.6194" y1="29.3744" x2="58.0757" y2="29.3744">
		<stop  offset="0" style="stop-color:#F8C01E"/>
		<stop  offset="0.3362" style="stop-color:#FDE267"/>
		<stop  offset="0.6143" style="stop-color:#FFD744"/>
		<stop  offset="1" style="stop-color:#C97829"/>
	</linearGradient>
	<path fill="url(#SVGID_19_)" d="M56.8,29.6L56.8,29.6L56,30.9h-0.4l1-1.6l-1-1.4h0.4l0.8,1.2l0.8-1.2H58l-1,1.4l1,1.6h-0.4
		L56.8,29.6z"/>
	<linearGradient id="SVGID_20_" gradientUnits="userSpaceOnUse" x1="58.5768" y1="29.3744" x2="58.9136" y2="29.3744">
		<stop  offset="0" style="stop-color:#F8C01E"/>
		<stop  offset="0.3362" style="stop-color:#FDE267"/>
		<stop  offset="0.6143" style="stop-color:#FFD744"/>
		<stop  offset="1" style="stop-color:#C97829"/>
	</linearGradient>
	<path fill="url(#SVGID_20_)" d="M58.9,30.9h-0.3v-3h0.3V30.9z"/>
	<linearGradient id="SVGID_21_" gradientUnits="userSpaceOnUse" x1="59.6585" y1="29.3744" x2="59.9954" y2="29.3744">
		<stop  offset="0" style="stop-color:#F8C01E"/>
		<stop  offset="0.3362" style="stop-color:#FDE267"/>
		<stop  offset="0.6143" style="stop-color:#FFD744"/>
		<stop  offset="1" style="stop-color:#C97829"/>
	</linearGradient>
	<path fill="url(#SVGID_21_)" d="M60,30.9h-0.3v-3H60V30.9z"/>
	<linearGradient id="SVGID_22_" gradientUnits="userSpaceOnUse" x1="60.7403" y1="29.3744" x2="61.0771" y2="29.3744">
		<stop  offset="0" style="stop-color:#F8C01E"/>
		<stop  offset="0.3362" style="stop-color:#FDE267"/>
		<stop  offset="0.6143" style="stop-color:#FFD744"/>
		<stop  offset="1" style="stop-color:#C97829"/>
	</linearGradient>
	<path fill="url(#SVGID_22_)" d="M61.1,30.9h-0.3v-3h0.3V30.9z"/>
</g>
<g id="_x2E_svg_6318_">
	<linearGradient id="SVGID_23_" gradientUnits="userSpaceOnUse" x1="55.5342" y1="32.2146" x2="57.0899" y2="32.2146">
		<stop  offset="0" style="stop-color:#F8C01E"/>
		<stop  offset="0.3362" style="stop-color:#FDE267"/>
		<stop  offset="0.6143" style="stop-color:#FFD744"/>
		<stop  offset="1" style="stop-color:#C97829"/>
	</linearGradient>
	<path fill="url(#SVGID_23_)" d="M56.3,33.1c-0.1,0-0.2,0-0.3-0.1c-0.1,0-0.2-0.1-0.2-0.2s-0.1-0.2-0.1-0.3c0-0.1,0-0.2,0-0.4
		c0-0.1,0-0.2,0-0.4c0-0.1,0.1-0.2,0.1-0.3c0.1-0.1,0.1-0.1,0.2-0.2c0.1,0,0.2-0.1,0.3-0.1c0.1,0,0.2,0,0.3,0.1
		c0.1,0,0.2,0.1,0.2,0.2c0.1,0.1,0.1,0.2,0.1,0.3c0,0.1,0,0.2,0,0.4c0,0.1,0,0.2,0,0.4c0,0.1-0.1,0.2-0.1,0.3
		c-0.1,0.1-0.1,0.1-0.2,0.2C56.6,33.1,56.4,33.1,56.3,33.1z M56.3,33c0.1,0,0.2,0,0.3-0.1c0.1,0,0.1-0.1,0.2-0.1
		c0-0.1,0.1-0.1,0.1-0.2c0-0.1,0-0.2,0-0.3c0-0.1,0-0.2,0-0.3c0-0.1-0.1-0.2-0.1-0.2c0-0.1-0.1-0.1-0.2-0.1c-0.1,0-0.2-0.1-0.3-0.1
		c-0.1,0-0.2,0-0.3,0.1c-0.1,0-0.1,0.1-0.2,0.1c0,0.1-0.1,0.1-0.1,0.2c0,0.1,0,0.2,0,0.3c0,0.1,0,0.2,0,0.3c0,0.1,0.1,0.2,0.1,0.2
		c0,0.1,0.1,0.1,0.2,0.1C56.1,32.9,56.2,33,56.3,33z"/>
	<linearGradient id="SVGID_24_" gradientUnits="userSpaceOnUse" x1="57.424" y1="32.2146" x2="58.6951" y2="32.2146">
		<stop  offset="0" style="stop-color:#F8C01E"/>
		<stop  offset="0.3362" style="stop-color:#FDE267"/>
		<stop  offset="0.6143" style="stop-color:#FFD744"/>
		<stop  offset="1" style="stop-color:#C97829"/>
	</linearGradient>
	<path fill="url(#SVGID_24_)" d="M58.3,32.2c0,0,0.1,0,0.1,0c0,0,0.1,0,0.1,0.1c0,0,0.1,0.1,0.1,0.1c0,0,0,0.1,0,0.2
		c0,0.1,0,0.1,0,0.2c0,0.1-0.1,0.1-0.1,0.2c-0.1,0-0.1,0.1-0.2,0.1c-0.1,0-0.2,0-0.3,0h-0.6v-1.8h0.6c0.2,0,0.3,0,0.4,0.1
		c0.1,0.1,0.1,0.2,0.1,0.3c0,0.1,0,0.1,0,0.1c0,0,0,0.1-0.1,0.1C58.5,32.1,58.5,32.1,58.3,32.2C58.4,32.1,58.4,32.2,58.3,32.2z
		 M58.1,32.1c0.1,0,0.2,0,0.3-0.1c0.1-0.1,0.1-0.1,0.1-0.2c0-0.1,0-0.2-0.1-0.2c-0.1,0-0.2-0.1-0.3-0.1h-0.5v0.6H58.1z M58.1,32.9
		c0.1,0,0.2,0,0.3-0.1c0.1-0.1,0.1-0.1,0.1-0.2c0-0.1,0-0.2-0.1-0.2c-0.1,0-0.2-0.1-0.3-0.1h-0.4v0.6H58.1z"/>
</g>
<g id="_x2E_svg_6317_">
	<linearGradient id="SVGID_25_" gradientUnits="userSpaceOnUse" x1="7.8324" y1="44.6902" x2="10.3487" y2="44.6902">
		<stop  offset="0" style="stop-color:#F8C01E"/>
		<stop  offset="0.3362" style="stop-color:#FDE267"/>
		<stop  offset="0.6143" style="stop-color:#FFD744"/>
		<stop  offset="1" style="stop-color:#C97829"/>
	</linearGradient>
	<path fill="url(#SVGID_25_)" d="M9.7,45.3c0.1,0.1,0.1,0.2,0.2,0.3c0.1,0.1,0.1,0.2,0.1,0.3h0c0-0.1,0-0.2,0-0.3s0-0.2,0-0.4V43
		h0.4v3.4H9.9l-1.4-2.3c-0.1-0.1-0.1-0.2-0.2-0.3c-0.1-0.1-0.1-0.2-0.1-0.3h0c0,0.1,0,0.2,0,0.3c0,0.1,0,0.2,0,0.4v2.2H7.8V43h0.4
		L9.7,45.3z"/>
	<linearGradient id="SVGID_26_" gradientUnits="userSpaceOnUse" x1="10.9941" y1="44.6902" x2="13.9995" y2="44.6902">
		<stop  offset="0" style="stop-color:#F8C01E"/>
		<stop  offset="0.3362" style="stop-color:#FDE267"/>
		<stop  offset="0.6143" style="stop-color:#FFD744"/>
		<stop  offset="1" style="stop-color:#C97829"/>
	</linearGradient>
	<path fill="url(#SVGID_26_)" d="M12.5,46.4c-0.3,0-0.5,0-0.7-0.1s-0.3-0.2-0.5-0.4c-0.1-0.2-0.2-0.3-0.3-0.6
		C11,45.2,11,44.9,11,44.7c0-0.2,0-0.5,0.1-0.7c0.1-0.2,0.2-0.4,0.3-0.6c0.1-0.2,0.3-0.3,0.5-0.4c0.2-0.1,0.4-0.1,0.7-0.1
		c0.3,0,0.5,0,0.7,0.1c0.2,0.1,0.3,0.2,0.5,0.4c0.1,0.2,0.2,0.3,0.3,0.6c0.1,0.2,0.1,0.4,0.1,0.7c0,0.2,0,0.5-0.1,0.7
		c-0.1,0.2-0.2,0.4-0.3,0.6c-0.1,0.2-0.3,0.3-0.5,0.4C13,46.4,12.8,46.4,12.5,46.4z M12.5,46.1c0.2,0,0.4,0,0.5-0.1
		c0.1-0.1,0.3-0.2,0.4-0.3c0.1-0.1,0.2-0.3,0.2-0.4c0-0.2,0.1-0.4,0.1-0.6c0-0.2,0-0.4-0.1-0.6c0-0.2-0.1-0.3-0.2-0.4
		c-0.1-0.1-0.2-0.2-0.4-0.3c-0.1-0.1-0.3-0.1-0.5-0.1c-0.2,0-0.4,0-0.5,0.1c-0.1,0.1-0.3,0.2-0.4,0.3c-0.1,0.1-0.2,0.3-0.2,0.4
		c0,0.2-0.1,0.4-0.1,0.6c0,0.2,0,0.4,0.1,0.6c0,0.2,0.1,0.3,0.2,0.4c0.1,0.1,0.2,0.2,0.4,0.3C12.1,46.1,12.3,46.1,12.5,46.1z"/>
	<linearGradient id="SVGID_27_" gradientUnits="userSpaceOnUse" x1="14.6449" y1="44.6902" x2="17.1008" y2="44.6902">
		<stop  offset="0" style="stop-color:#F8C01E"/>
		<stop  offset="0.3362" style="stop-color:#FDE267"/>
		<stop  offset="0.6143" style="stop-color:#FFD744"/>
		<stop  offset="1" style="stop-color:#C97829"/>
	</linearGradient>
	<path fill="url(#SVGID_27_)" d="M16.4,44.6c0.1,0,0.2,0,0.2,0.1c0.1,0,0.2,0.1,0.2,0.2C17,44.9,17,45,17,45.1
		c0,0.1,0.1,0.2,0.1,0.3c0,0.1,0,0.3-0.1,0.4c0,0.1-0.1,0.2-0.2,0.3c-0.1,0.1-0.2,0.2-0.4,0.2c-0.2,0-0.3,0.1-0.5,0.1h-1.3V43h1.2
		c0.3,0,0.6,0.1,0.8,0.2c0.2,0.2,0.3,0.4,0.3,0.6c0,0.1,0,0.2-0.1,0.3c0,0.1-0.1,0.2-0.1,0.2c-0.1,0.1-0.1,0.1-0.2,0.2
		C16.5,44.6,16.5,44.6,16.4,44.6z M15.9,44.5c0.2,0,0.4,0,0.5-0.1c0.1-0.1,0.2-0.2,0.2-0.4c0-0.2-0.1-0.3-0.2-0.4
		c-0.1-0.1-0.3-0.1-0.5-0.1H15v1.1H15.9z M15.9,46c0.3,0,0.5-0.1,0.6-0.2c0.1-0.1,0.2-0.3,0.2-0.5c0-0.2-0.1-0.4-0.2-0.5
		c-0.2-0.1-0.4-0.1-0.6-0.1H15V46H15.9z"/>
	<linearGradient id="SVGID_28_" gradientUnits="userSpaceOnUse" x1="17.7413" y1="44.6902" x2="19.824" y2="44.6902">
		<stop  offset="0" style="stop-color:#F8C01E"/>
		<stop  offset="0.3362" style="stop-color:#FDE267"/>
		<stop  offset="0.6143" style="stop-color:#FFD744"/>
		<stop  offset="1" style="stop-color:#C97829"/>
	</linearGradient>
	<path fill="url(#SVGID_28_)" d="M17.7,43h2.1v0.3h-1.7v1.1h1.6v0.4h-1.6V46h1.7v0.3h-2.1V43z"/>
	<linearGradient id="SVGID_29_" gradientUnits="userSpaceOnUse" x1="20.4895" y1="44.6902" x2="22.4965" y2="44.6902">
		<stop  offset="0" style="stop-color:#F8C01E"/>
		<stop  offset="0.3362" style="stop-color:#FDE267"/>
		<stop  offset="0.6143" style="stop-color:#FFD744"/>
		<stop  offset="1" style="stop-color:#C97829"/>
	</linearGradient>
	<path fill="url(#SVGID_29_)" d="M20.5,43h0.4v3h1.6v0.4h-2V43z"/>
</g>
<g id="_x2E_svg_6316_">
	<linearGradient id="SVGID_30_" gradientUnits="userSpaceOnUse" x1="10.3958" y1="40.4708" x2="12.8165" y2="40.4708">
		<stop  offset="0" style="stop-color:#F8C01E"/>
		<stop  offset="0.3362" style="stop-color:#FDE267"/>
		<stop  offset="0.6143" style="stop-color:#FFD744"/>
		<stop  offset="1" style="stop-color:#C97829"/>
	</linearGradient>
	<path fill="url(#SVGID_30_)" d="M12.2,41.1H11l-0.3,0.8h-0.3l1.1-2.8h0.3l1.1,2.8h-0.3L12.2,41.1z M11.1,40.8h1L11.8,40
		c0-0.1-0.1-0.2-0.1-0.3c0-0.1-0.1-0.2-0.1-0.3h0c0,0.1-0.1,0.2-0.1,0.3c0,0.1-0.1,0.2-0.1,0.3L11.1,40.8z"/>
	<linearGradient id="SVGID_31_" gradientUnits="userSpaceOnUse" x1="13.252" y1="40.4708" x2="14.9189" y2="40.4708">
		<stop  offset="0" style="stop-color:#F8C01E"/>
		<stop  offset="0.3362" style="stop-color:#FDE267"/>
		<stop  offset="0.6143" style="stop-color:#FFD744"/>
		<stop  offset="1" style="stop-color:#C97829"/>
	</linearGradient>
	<path fill="url(#SVGID_31_)" d="M13.3,39.1h0.3v2.5h1.3v0.3h-1.7V39.1z"/>
	<linearGradient id="SVGID_32_" gradientUnits="userSpaceOnUse" x1="15.3879" y1="40.4708" x2="17.0589" y2="40.4708">
		<stop  offset="0" style="stop-color:#F8C01E"/>
		<stop  offset="0.3362" style="stop-color:#FDE267"/>
		<stop  offset="0.6143" style="stop-color:#FFD744"/>
		<stop  offset="1" style="stop-color:#C97829"/>
	</linearGradient>
	<path fill="url(#SVGID_32_)" d="M15.4,39.1h1.7v0.3h-1.4v1H17v0.3h-1.3v1.3h-0.3V39.1z"/>
	<linearGradient id="SVGID_33_" gradientUnits="userSpaceOnUse" x1="17.5782" y1="40.4688" x2="19.5257" y2="40.4688">
		<stop  offset="0" style="stop-color:#F8C01E"/>
		<stop  offset="0.3362" style="stop-color:#FDE267"/>
		<stop  offset="0.6143" style="stop-color:#FFD744"/>
		<stop  offset="1" style="stop-color:#C97829"/>
	</linearGradient>
	<path fill="url(#SVGID_33_)" d="M19.5,39.9c0,0.2-0.1,0.4-0.2,0.5c-0.1,0.1-0.3,0.2-0.5,0.3l0.7,1.2h-0.3l-0.7-1.1h0h-0.6v1.1h-0.3
		v-2.8h1c0.1,0,0.3,0,0.4,0.1c0.1,0,0.2,0.1,0.3,0.2c0.1,0.1,0.1,0.2,0.2,0.3C19.5,39.7,19.5,39.8,19.5,39.9z M19.2,39.9
		c0-0.2-0.1-0.3-0.2-0.4c-0.1-0.1-0.3-0.1-0.5-0.1h-0.7v1.1h0.7c0.2,0,0.4-0.1,0.5-0.2C19.1,40.2,19.2,40.1,19.2,39.9z"/>
</g>
<linearGradient id="_x2E_svg_19_" gradientUnits="userSpaceOnUse" x1="20.0333" y1="40.4708" x2="20.7167" y2="40.4708">
	<stop  offset="0" style="stop-color:#F8C01E"/>
	<stop  offset="0.3362" style="stop-color:#FDE267"/>
	<stop  offset="0.6143" style="stop-color:#FFD744"/>
	<stop  offset="1" style="stop-color:#C97829"/>
</linearGradient>
<circle id="_x2E_svg_6315_" fill="url(#_x2E_svg_19_)" cx="20.4" cy="40.5" r="0.3"/>
<linearGradient id="_x2E_svg_20_" gradientUnits="userSpaceOnUse" x1="59.4514" y1="22.461" x2="59.9734" y2="22.461">
	<stop  offset="0" style="stop-color:#F8C01E"/>
	<stop  offset="0.3362" style="stop-color:#FDE267"/>
	<stop  offset="0.6143" style="stop-color:#FFD744"/>
	<stop  offset="1" style="stop-color:#C97829"/>
</linearGradient>
<circle id="_x2E_svg_6311_" fill="url(#_x2E_svg_20_)" cx="59.7" cy="22.5" r="0.3"/>
<linearGradient id="_x2E_svg_21_" gradientUnits="userSpaceOnUse" x1="59.4514" y1="32.0639" x2="59.9734" y2="32.0639">
	<stop  offset="0" style="stop-color:#F8C01E"/>
	<stop  offset="0.3362" style="stop-color:#FDE267"/>
	<stop  offset="0.6143" style="stop-color:#FFD744"/>
	<stop  offset="1" style="stop-color:#C97829"/>
</linearGradient>
<circle id="_x2E_svg_6310_" fill="url(#_x2E_svg_21_)" cx="59.7" cy="32.1" r="0.3"/>
<g>
</g>
<g>
</g>
<g>
</g>
<g>
</g>
<g>
</g>
<g>
</g>
<g>
</g>
<g>
</g>
<g>
</g>
<g>
</g>
<g>
</g>
<g>
</g>
<g>
</g>
<g>
</g>
<g>
</g>
</svg>
